<svg id="e9P1LMR4Kfm1" xmlns="http://www.w3.org/2000/svg" xmlns:xlink="http://www.w3.org/1999/xlink" viewBox="0 0 512 512" shape-rendering="geometricPrecision" text-rendering="geometricPrecision"><path d="M357.333344,402c-16.933442-1.555237-38.666687-4.833343-59.67035-27.771942v47.190002C336.25,446.5,402.61438,441.896393,425.75,411.75c13.75-17.916656,19.416657-41.916687,9.23703-69.098968C411,294.333344,354,291.333344,337.424011,260.822052c-18.313049-49.417999,57.212006-58.347061,93.497986-25.054016v-44.360016c-15.46051-9.984802-40.043793-11.057648-57.28949-10.126373-45.511718,2.457641-76.094726,28.901367-75.638488,68.293396-1.960694,54.986511,60.829528,69.144867,92.358978,94.59201C411.766113,362.337036,410.233429,406.401703,357.333344,402ZM177.641998,433.514008v-213.488999h-68.778v-38.743362l175.654984,3.440368v35.303009h-68.92099v213.489014l-37.955994-.00003Z" transform="matrix(.893061 0 0 0.823551 111.515153 75.294711)"/><rect width="285.604382" height="220.215054" rx="0" ry="0" transform="matrix(1.807417 0 0 2.325-4.206216 0)" fill="#aefeff" stroke-width="0"/><path d="M357.333344,402c-16.933442-1.555237-38.666687-4.833343-59.67035-27.771942v47.190002C336.25,446.5,402.61438,441.896393,425.75,411.75c13.75-17.916656,19.416657-41.916687,9.23703-69.098968C411,294.333344,354,291.333344,337.424011,260.822052c-18.313049-49.417999,57.212006-58.347061,93.497986-25.054016v-44.360016c-15.46051-9.984802-40.043793-11.057648-57.28949-10.126373-45.511718,2.457641-76.094726,28.901367-75.638488,68.293396-1.960694,54.986511,60.829528,69.144867,92.358978,94.59201C411.766113,362.337036,410.233429,406.401703,357.333344,402ZM177.641998,433.514008v-213.488999h-68.778v-38.743362l175.654984,3.440368v35.303009h-68.92099v213.489014l-37.955994-.00003Z" transform="matrix(.893061 0 0 0.823551 80.352644 119.960974)" fill="#072227"/></svg>